<svg xmlns="http://www.w3.org/2000/svg" viewBox="0, 0, 400,400"><g fill-rule="evenodd"><path d="M188.761 90.973c-.111.11-1.992.398-4.181.64-5.371.593-11.167 1.776-13.58 2.773-.44.182-2.51.919-4.6 1.638-11.53 3.968-22.849 12.064-28.986 20.731-6.531 9.226-9.849 20.429-9.787 33.045.138 28.061 14.591 46.561 44.173 56.543 1.98.668 5.13 1.746 7 2.396 1.87.651 4.39 1.465 5.6 1.81s3.46 1.008 5 1.473c4.037 1.218 5.991 1.777 9.6 2.746 1.76.472 3.65 1.014 4.2 1.204.55.19 2.08.654 3.4 1.031 6.046 1.724 6.311 1.827 11.8 4.559 15.608 7.771 20.683 23.23 12.88 39.238-10.025 20.568-51.443 21.538-90.072 2.108-4.432-2.229-5.608-2.531-5.608-1.438 0 .368-.418 1.943-.93 3.5-.511 1.556-1.252 3.91-1.646 5.23-.394 1.32-.851 2.76-1.014 3.2-.164.44-.618 1.88-1.009 3.2-.857 2.894-2.372 7.709-3.232 10.27-1.201 3.578-1.072 3.748 5.255 6.915 7.578 3.793 11.365 5.352 18.176 7.484 1.43.448 2.96.965 3.4 1.151.732.308 2.388.699 9.2 2.168 17.358 3.744 33.516 4.375 50.2 1.962 5.623-.813 15.159-2.987 18.2-4.149 6.509-2.486 13.428-5.732 15.58-7.309.231-.169 2.04-1.456 4.02-2.858 25.998-18.418 29.617-66.05 6.707-88.269-5.655-5.485-20.627-15.165-23.455-15.165-.108 0-1.334-.517-2.724-1.148-1.39-.631-3.878-1.636-5.528-2.232-1.65-.596-3.36-1.237-3.8-1.424-.44-.187-3.23-1.1-6.2-2.03-13.475-4.217-15.449-4.846-16.2-5.163-.44-.186-4.58-1.541-9.2-3.012-19.267-6.132-24.92-12.575-24.035-27.389.794-13.304 7.712-20.723 22.435-24.058 6.486-1.47 30.358-.531 37.4 1.47 1.21.344 3.01.796 4 1.006 1.712.362 10.104 2.9 11.8 3.569.44.173 1.61.628 2.6 1.011.99.383 2.16.844 2.6 1.025 8.651 3.557 7.458 3.942 10.591-3.425 3.594-8.45 8.095-19.776 8.145-20.492.078-1.135-4.947-3.911-12.036-6.651l-3.2-1.238c-1.323-.512-3.642-1.265-10.071-3.267-.974-.304-2.179-.552-2.677-.552-.497 0-1.003-.159-1.123-.354-.121-.195-.716-.446-1.324-.558-.608-.113-2.635-.502-4.505-.864-8.369-1.624-42.068-3.222-43.239-2.051" fill="#f9f9f9"/><path d="M179.7 5.879c-.935.092-1.7.337-1.7.544 0 .207-1.519.377-3.376.377-2.121 0-3.483.172-3.662.462-.189.305-.108.352.238.138.322-.199.426-.166.271.085-.139.225-1.91.443-3.935.484-2.026.041-3.875.195-4.109.343-.235.148-1.679.385-3.21.527-1.531.142-2.851.462-2.933.71-.084.252-1.007.451-2.094.451-1.068 0-2.054.18-2.19.4-.136.22-.764.4-1.395.4s-1.418.27-1.748.6c-.39.391-1.382.6-2.841.6-1.623 0-2.305.165-2.471.6-.15.391-.773.6-1.788.6-.856 0-1.557.18-1.557.4 0 .22-.636.4-1.413.4-.886 0-1.498.223-1.642.6-.141.367-.748.6-1.564.6-.734 0-1.445.18-1.581.4-.136.22-.674.4-1.195.4s-1.218.27-1.548.6c-.33.33-1.05.6-1.6.6s-1.27.27-1.6.6c-.33.33-.973.6-1.428.6-.456 0-.829.18-.829.4 0 .22-.527.4-1.171.4-.645 0-1.442.27-1.772.6-.33.33-.973.6-1.428.6-.456 0-.829.18-.829.4 0 .22-.347.4-.771.4-.425 0-1.042.27-1.372.6-.33.33-.96.6-1.4.6-.44 0-1.07.27-1.4.6-.33.33-.973.6-1.428.6-.456 0-.829.18-.829.4 0 .22-.251.4-.557.4-.307 0-.661.27-.788.6-.126.33-.686.6-1.242.6-.557 0-1.013.16-1.013.355 0 .196-.63.474-1.4.619-.77.144-1.4.434-1.4.644 0 .21-.251.382-.557.382-.307 0-.661.27-.788.6-.126.33-.596.6-1.042.6-.447 0-.813.18-.813.4 0 .22-.45.4-1 .4-.577 0-.958.207-.9.491.055.269-.346.557-.891.639-.545.082-1.391.582-1.881 1.11-.489.528-1.258.96-1.709.96-.461 0-.819.262-.819.6 0 .33-.234.6-.52.6-.919 0-2.674.984-2.677 1.5-.002.275-.453.5-1.003.5-.622 0-1 .227-1 .6 0 .33-.27.6-.6.6-.33 0-.6.18-.6.4 0 .22-.366.4-.813.4-.446 0-.916.27-1.042.6-.127.33-.416.6-.642.6-.226 0-.828.45-1.338 1-.51.55-1.124 1-1.365 1-.241 0-.855.45-1.365 1s-1.131 1-1.381 1-.454.27-.454.6c0 .33-.328.6-.728.6-.764 0-3.265 2.009-3.281 2.636-.005.2-.59.659-1.3 1.019-.71.36-1.242.868-1.181 1.129.06.262-.064.368-.277.236-.213-.131-.943.306-1.624.971-.68.665-1.41 1.209-1.623 1.209-.212 0-.386.24-.386.532 0 .293-.45.774-1 1.068-.55.294-1 .775-1 1.068 0 .292-.181.532-.403.532-.512 0-15.197 14.706-15.197 15.219 0 .21-.24.381-.532.381-.293 0-.774.45-1.068 1-.294.55-.775 1-1.068 1-.292 0-.532.204-.532.454s-.45.871-1 1.381-1 1.072-1 1.25c0 .178-.45.808-1 1.402-.55.593-1 1.266-1 1.496 0 .229-.209.417-.464.417-.697 0-2.736 2.438-2.736 3.272 0 .4-.27.728-.6.728-.33 0-.6.227-.6.505s-.45.843-1 1.256c-.55.413-1 1.035-1 1.382s-.46 1.027-1.022 1.51c-.563.483-1.05 1.241-1.083 1.685-.034.444-.205.718-.381.609-.176-.109-.444.129-.596.528-.152.399-.691 1.173-1.197 1.721-.507.548-.921 1.313-.921 1.7s-.27.704-.6.704c-.33 0-.6.27-.6.6 0 .33-.18.6-.4.6-.22 0-.4.45-.4 1 0 .622-.227 1-.6 1-.33 0-.6.351-.6.779 0 .429-.45 1.265-1 1.859-.55.593-1 1.413-1 1.82 0 .408-.27.742-.6.742-.373 0-.6.378-.6 1 0 .55-.18 1-.4 1-.22 0-.4.45-.4 1 0 .622-.227 1-.6 1-.33 0-.6.255-.6.567 0 .311-.135.626-.3.7-.517.23-1.7 3.114-1.7 4.147 0 .542-.225.987-.5.989-.467.003-1.5 1.728-1.5 2.505 0 .192-.27.619-.6.949-.33.33-.6.96-.6 1.4 0 .44-.27 1.07-.6 1.4-.33.33-.6.947-.6 1.372 0 .424-.18.771-.4.771-.22 0-.4.431-.4.957 0 .527-.27 1.061-.6 1.188-.377.144-.6.756-.6 1.642 0 .777-.18 1.413-.4 1.413-.22 0-.4.546-.4 1.213 0 .708-.249 1.308-.6 1.442-.33.127-.6.674-.6 1.216 0 .543-.27 1.256-.6 1.586-.33.33-.6 1.027-.6 1.548 0 .521-.18 1.059-.4 1.195-.22.136-.4.847-.4 1.581 0 .816-.233 1.423-.6 1.564-.377.144-.6.756-.6 1.642 0 .777-.18 1.413-.4 1.413-.22 0-.4.701-.4 1.557 0 1.015-.209 1.638-.6 1.788-.44.168-.6.862-.6 2.6 0 1.737-.16 2.431-.6 2.6-.374.143-.6.753-.6 1.619 0 .764-.18 1.5-.4 1.636-.22.136-.4 1.122-.4 2.19 0 1.199-.191 2.007-.5 2.11-.497.166-.901 3.215-1.347 10.175-.137 2.133-.41 3.44-.782 3.749-.416.345-.571 1.431-.571 3.992 0 2.458-.151 3.567-.5 3.684-.729.243-.729 39.231 0 39.96.323.323.5 1.728.5 3.971 0 2.517.157 3.601.57 3.944.362.3.649 1.599.785 3.549.539 7.72.862 10.216 1.345 10.376.299.1.5.875.5 1.933 0 .972.18 1.767.4 1.767.22 0 .4.816.4 1.813 0 1.242.189 1.885.6 2.042.429.165.6.836.6 2.359 0 1.359.217 2.346.6 2.729.33.33.6 1.142.6 1.805s.18 1.316.4 1.452c.22.136.4.847.4 1.581 0 .816.233 1.423.6 1.564.377.144.6.756.6 1.642 0 .777.18 1.413.4 1.413.22 0 .4.527.4 1.171 0 .645.27 1.442.6 1.772.33.33.6.953.6 1.386 0 .432.27.889.6 1.016.377.144.6.756.6 1.642 0 .777.18 1.413.4 1.413.22 0 .4.527.4 1.171 0 .645.27 1.442.6 1.772.33.33.6.973.6 1.428 0 .456.16.829.357.829.196 0 .469.45.607 1s.428 1 .644 1c.215 0 .392.518.392 1.151s.27 1.375.6 1.649c.33.274.6.926.6 1.449s.137.951.305.951c.32 0 .649.577 2.107 3.7.487 1.045 1.044 1.9 1.237 1.9.193 0 .351.45.351 1 0 .622.227 1 .6 1s.6.378.6 1c0 .55.18 1 .4 1 .22 0 .4.366.4.813 0 .446.27.916.6 1.042.33.127.6.481.6.788 0 .306.16.557.357.557.196 0 .469.45.607 1s.428 1 .644 1c.215 0 .392.45.392 1 0 .622.227 1 .6 1 .33 0 .6.27.6.6 0 .33.18.6.4.6.22 0 .4.366.4.813 0 .446.252.909.561 1.027.308.119.663.518.788.888.344 1.016 1.149 2.168 2.151 3.079.495.45.906 1.083.913 1.406.016.771.953 1.987 1.531 1.987.251 0 .456.366.456.813 0 .446.27.916.6 1.042.33.127.6.416.6.642 0 .226.45.828 1 1.338.55.51 1 1.126 1 1.37 0 .243.208.314.462.157.281-.174.353-.11.185.162-.152.246.09.813.538 1.261.448.448.815.995.815 1.215 0 .22.27.4.6.4.33 0 .6.193.6.429 0 .553 1.018 1.571 1.571 1.571.236 0 .429.369.429.819 0 .451.45 1.236 1 1.746s1 1.131 1 1.381.193.454.429.454c.553 0 1.571 1.018 1.571 1.571 0 .236.27.429.6.429.33 0 .6.194.6.431 0 .482 3.185 3.569 3.682 3.569.175 0 .318.29.318.644 0 .619 6.889 7.749 7.501 7.763.164.004.723.454 1.241 1 .518.546 1.103.993 1.3.993.197 0 .358.27.358.6 0 .33.27.6.6.6.33 0 .6.27.6.6 0 .33.152.6.339.6.186 0 .987.63 1.78 1.4.793.77 1.559 1.4 1.704 1.4.144 0 .617.452 1.051 1.004.435.552.923.922 1.085.821.162-.1.548.168.856.596.309.429.792.779 1.073.779.282 0 .512.231.512.514 0 .648 2.178 1.964 2.608 1.575.176-.159.183-.052.016.238-.202.349-.021.601.536.747.462.12.84.468.84.773 0 .304.27.553.6.553.33 0 .6.18.6.4 0 .22.27.4.6.4.33 0 .6.177.6.392 0 .216.415.497.923.624.508.128 1.253.671 1.656 1.208.403.537.901.976 1.106.976.204 0 .623.225.93.5 1.272 1.141 2.945 2.243 3.885 2.558.385.13.7.375.7.545 0 .171.45.423 1 .561.55.138 1 .428 1 .644 0 .215.27.392.6.392.33 0 .6.177.6.392 0 .216.45.506 1 .644s1 .411 1 .607c0 .197.27.357.6.357.33 0 .6.177.6.392 0 .216.45.506 1 .644s1 .392 1 .564c0 .172.45.426 1 .564.55.138 1 .428 1 .644 0 .215.366.392.813.392.446 0 .916.27 1.042.6.127.33.661.6 1.188.6.526 0 .957.137.957.305 0 .334.254.479 4.187 2.395 1.468.715 2.932 1.3 3.253 1.3.322 0 .689.27.815.6.127.33.661.6 1.188.6.526 0 .957.18.957.4 0 .22.338.4.751.4s.975.27 1.249.6c.274.33.881.606 1.349.613.468.007 1.2.277 1.627.6.428.323 1.193.587 1.7.587.508 0 .924.18.924.4 0 .22.373.4.829.4.455 0 1.098.27 1.428.6.33.33 1.117.6 1.748.6s1.259.18 1.395.4c.136.22.757.4 1.381.4.638 0 1.234.262 1.364.6.126.33.731.606 1.342.613.612.007 1.462.277 1.889.6.428.323 1.362.587 2.077.587.715 0 1.411.18 1.547.4.136.22.937.4 1.781.4.994 0 1.614.211 1.764.6.143.374.753.6 1.619.6.764 0 1.5.18 1.636.4.136.22 1.117.4 2.181.4 1.35 0 2.003.181 2.164.6.167.435.864.603 2.542.613 1.397.007 2.621.245 3.089.6.474.358 1.674.587 3.077.587 1.265 0 2.411.18 2.547.4.136.22 1.101.4 2.144.4 1.043 0 2.104.208 2.359.463 1.797 1.797 58.402 1.792 60.199-.005.252-.252 1.412-.458 2.578-.458s2.12-.18 2.12-.4c0-.226 1.138-.4 2.613-.4 1.953 0 2.67-.151 2.842-.6.174-.453.907-.6 3-.6s2.826-.147 3-.6c.162-.42.817-.6 2.188-.6 1.076 0 1.957-.18 1.957-.4 0-.22.72-.4 1.6-.4 1.156 0 1.6-.167 1.6-.6 0-.443.464-.6 1.776-.6.977 0 1.888-.18 2.024-.4.136-.22.742-.4 1.347-.4s1.449-.264 1.877-.587c.427-.323 1.277-.593 1.889-.6.611-.007 1.216-.283 1.342-.613.13-.338.726-.6 1.364-.6.624 0 1.245-.18 1.381-.4.136-.22.672-.4 1.191-.4 1.189 0 2.257-.398 2.034-.759-.093-.151.403-.318 1.103-.371.699-.052 1.332-.27 1.405-.483.074-.213.457-.387.851-.387.395 0 .942-.27 1.216-.6.274-.33 1.022-.6 1.662-.6.665 0 1.262-.257 1.393-.6.127-.33.651-.6 1.164-.6.514 0 1.045-.18 1.181-.4.136-.22.602-.4 1.036-.4.434 0 .893-.27 1.019-.6.127-.33.661-.6 1.188-.6.526 0 .957-.16.957-.355 0-.196.63-.474 1.4-.619.77-.144 1.4-.434 1.4-.644 0-.21.27-.382.6-.382.33 0 .6-.27.6-.6 0-.369.375-.6.976-.6.537 0 1.088-.18 1.224-.4.136-.22.602-.4 1.036-.4.434 0 .893-.27 1.019-.6.127-.33.596-.6 1.042-.6.446 0 1.228-.45 1.738-1s1.276-1 1.703-1c.427 0 .88-.27 1.007-.6.126-.33.53-.6.897-.6.366 0 1.083-.45 1.593-1s1.183-1 1.497-1c.313 0 .794-.27 1.068-.6.274-.33.72-.6.991-.6s.978-.45 1.571-1c.594-.55 1.261-1 1.482-1 .222 0 .289-.184.15-.41-.139-.225-.105-.384.076-.353.962.168 1.73-.103 1.73-.609 0-.315.405-.634.9-.71.495-.075.855-.358.8-.627-.055-.27.26-.491.7-.491.44 0 .8-.18.8-.4 0-.22.251-.4.557-.4.307 0 .661-.27.788-.6.126-.33.512-.6.858-.6.345 0 1.377-.72 2.293-1.6.916-.88 1.82-1.6 2.008-1.6.189 0 .215-.208.058-.462-.174-.281-.11-.353.162-.185.246.152.813-.09 1.261-.538.448-.448.952-.815 1.12-.815.168 0 .643-.45 1.056-1 .413-.55 1.001-1 1.308-1 .306 0 .66-.27.786-.6.127-.33.409-.6.626-.6.218 0 1.729-1.35 3.357-3 1.629-1.65 3.11-3 3.29-3 .486 0 4.289-3.73 4.172-4.091-.055-.17.125-.308.4-.306.728.005 4.727-4.436 4.429-4.919-.14-.225-.057-.287.185-.137.414.256 2.486-1.605 2.486-2.234 0-.162 1.17-1.453 2.6-2.869 1.43-1.416 2.6-2.751 2.6-2.966 0-.216.27-.496.6-.623.33-.126.6-.596.6-1.042 0-.447.193-.813.429-.813.437 0 1.571-.975 1.571-1.351 0-.114.45-.693 1-1.287.55-.593 1-1.413 1-1.82 0-.408.209-.742.464-.742.697 0 2.736-2.438 2.736-3.272 0-.4.27-.728.6-.728.33 0 .6-.27.6-.6 0-.33.18-.6.4-.6.22 0 .4-.27.4-.6 0-.33.177-.6.392-.6.216 0 .506-.45.644-1s.501-1 .807-1c.493 0 .76-.776.594-1.73-.031-.181.128-.215.353-.076.226.139.41-.008.41-.328 0-.319.242-.673.537-.786.295-.114.844-.853 1.219-1.643.375-.79.853-1.437 1.063-1.437.209 0 .381-.369.381-.819 0-.451.45-1.236 1-1.746s1-1.311 1-1.781c0-.492.254-.854.6-.854.33 0 .6-.351.6-.779 0-.429.45-1.265 1-1.859.55-.593 1-1.393 1-1.778 0-.384.27-.802.6-.929.33-.126.6-.585.6-1.019 0-.434.18-.9.4-1.036.22-.136.4-.687.4-1.224 0-.601.231-.976.6-.976.373 0 .6-.378.6-1 0-.55.177-1 .392-1 .216 0 .506-.45.644-1s.411-1 .607-1c.197 0 .357-.431.357-.957 0-.527.27-1.061.6-1.188.33-.126.6-.686.6-1.242 0-.557.18-1.013.4-1.013.22 0 .4-.431.4-.957 0-.527.27-1.061.6-1.188.372-.142.6-.751.6-1.6 0-.848.228-1.457.6-1.6.33-.126.6-.596.6-1.042 0-.447.18-.813.4-.813.22 0 .4-.518.4-1.151s.27-1.375.6-1.649c.33-.274.6-1.106.6-1.849 0-.743.18-1.351.4-1.351.22 0 .4-.463.4-1.029 0-.565.27-1.298.6-1.628.33-.33.606-.992.613-1.472.007-.479.277-1.22.6-1.647.323-.428.587-1.272.587-1.877s.18-1.211.4-1.347c.22-.136.4-1.027.4-1.981 0-1.172.194-1.808.6-1.964.409-.157.6-.797.6-2.009 0-.979.17-1.839.379-1.913.208-.073.422-.999.475-2.056.054-1.058.272-2.031.484-2.162.228-.141.253-.025.062.285-.214.346-.167.427.138.238.273-.168.462-1.353.462-2.89 0-1.782.19-2.795.6-3.205.369-.369.6-1.35.6-2.548 0-1.071.18-2.059.4-2.195.22-.136.4-1.392.4-2.79 0-1.68.17-2.6.5-2.709 1.045-.346 2.013-40.985 1.122-47.101-.24-1.65-.446-4.755-.457-6.9-.016-2.824-.179-4.057-.593-4.471-.369-.369-.572-1.425-.572-2.977 0-1.323-.158-2.503-.351-2.622-.194-.119-.433-1.335-.532-2.701-.1-1.395-.385-2.552-.648-2.639-.293-.098-.469-1.11-.469-2.695 0-1.723-.193-2.731-.6-3.138-.33-.33-.6-1.243-.6-2.028 0-.786-.18-1.429-.4-1.429-.22 0-.4-.816-.4-1.813 0-1.242-.189-1.885-.6-2.042-.392-.151-.6-.773-.6-1.793 0-.86-.17-1.875-.378-2.257-.208-.382-.486-1.37-.618-2.195-.132-.825-.412-1.5-.622-1.5-.21 0-.382-.431-.382-.957 0-.527-.27-1.061-.6-1.188-.374-.143-.6-.753-.6-1.619 0-.764-.18-1.5-.4-1.636-.22-.136-.4-.742-.4-1.347s-.264-1.449-.587-1.877c-.323-.427-.593-1.181-.6-1.676-.007-.495-.193-.9-.413-.9-.22 0-.4-.347-.4-.771 0-.425-.27-1.042-.6-1.372-.33-.33-.6-1.068-.6-1.641s-.27-1.145-.6-1.271c-.342-.132-.6-.728-.6-1.388 0-.636-.18-1.157-.4-1.157-.22 0-.4-.366-.4-.813 0-.446-.27-.916-.6-1.042-.33-.127-.6-.544-.6-.926 0-.925-1.161-3.219-1.629-3.219-.204 0-.371-.456-.371-1.013 0-.556-.27-1.116-.6-1.242-.33-.127-.6-.661-.6-1.188 0-.526-.18-.957-.4-.957-.22 0-.4-.366-.4-.813 0-.446-.27-.916-.6-1.042-.33-.127-.6-.672-.6-1.211 0-.54-.165-.879-.367-.754-.203.125-.487-.315-.632-.977-.146-.661-.43-1.203-.633-1.203-.202 0-.368-.251-.368-.557 0-.307-.27-.661-.6-.788-.33-.126-.6-.596-.6-1.042 0-.447-.159-.813-.353-.813-.195 0-.459-.315-.589-.7-.269-.801-1.028-2.015-1.758-2.812-.275-.3-.5-.802-.5-1.117 0-.314-.18-.571-.4-.571-.22 0-.4-.27-.4-.6 0-.33-.27-.6-.6-.6-.33 0-.6-.334-.6-.742 0-.407-.45-1.227-1-1.82-.55-.594-1-1.315-1-1.603 0-.287-.45-.861-1-1.274-.55-.413-1-.959-1-1.213 0-.254-.27-.566-.6-.693-.33-.126-.6-.53-.6-.897 0-.366-.45-1.083-1-1.593s-1-1.115-1-1.346c0-.23-.172-.419-.381-.419-.21 0-.68-.63-1.046-1.4-.365-.77-.914-1.4-1.219-1.4-.305 0-.556-.225-.558-.5-.002-.275-.72-1.13-1.596-1.9-.876-.77-1.594-1.634-1.596-1.92-.002-.286-.634-1.168-1.404-1.961-.77-.793-1.4-1.594-1.4-1.78 0-.187-.27-.339-.6-.339-.33 0-.6-.27-.6-.6 0-.33-.193-.6-.429-.6-.553 0-1.571-1.018-1.571-1.571 0-.236-.27-.429-.6-.429-.33 0-.6-.186-.6-.413 0-.419-2.246-2.787-2.642-2.787-.283 0-1.358-1.08-1.358-1.363 0-.358-7.696-7.837-8.064-7.837-.185 0-.336-.27-.336-.6 0-.33-.192-.6-.427-.6s-1.018-.627-1.74-1.393c-.723-.766-1.431-1.276-1.573-1.133-.143.143-.26.049-.26-.207 0-.257-.226-.467-.502-.467s-1.028-.63-1.67-1.4c-.642-.77-1.406-1.4-1.698-1.4-.291 0-.53-.27-.53-.6 0-.33-.204-.6-.454-.6s-.871-.45-1.381-1-1.124-1-1.365-1c-.241 0-.855-.45-1.365-1s-1.227-1-1.593-1c-.367 0-.771-.27-.897-.6-.127-.33-.481-.6-.788-.6-.306 0-.557-.27-.557-.6 0-.33-.27-.6-.6-.6-.33 0-.6-.18-.6-.4 0-.22-.227-.4-.504-.4s-.962-.405-1.521-.9c-1.269-1.122-2.376-1.856-3.247-2.151-.37-.125-.769-.48-.888-.788-.118-.309-.581-.561-1.027-.561-.447 0-.813-.18-.813-.4 0-.22-.251-.4-.557-.4-.307 0-.661-.27-.788-.6-.126-.33-.596-.6-1.042-.6-.447 0-.813-.18-.813-.4 0-.22-.251-.4-.557-.4-.307 0-.665-.281-.797-.625s-.398-.528-.592-.409c-.193.12-.762-.139-1.264-.574-.502-.436-1.155-.792-1.451-.792-.297 0-.539-.18-.539-.4 0-.22-.45-.4-1-.4-.622 0-1-.227-1-.6 0-.33-.345-.6-.767-.6-.421 0-.826-.135-.9-.3-.207-.467-3.07-1.7-3.947-1.7-.432 0-.786-.27-.786-.6 0-.33-.242-.6-.539-.6-.687 0-2.973-1.133-3.277-1.625-.127-.206-.761-.375-1.408-.375-.647 0-1.176-.168-1.176-.373s-.405-.499-.9-.654c-.495-.154-.997-.431-1.116-.614-.118-.183-.807-.379-1.53-.434-.723-.055-1.419-.268-1.546-.474-.134-.217-.011-.238.292-.051.346.214.427.167.238-.138-.157-.254-.815-.462-1.462-.462s-1.176-.18-1.176-.4c0-.22-.463-.4-1.029-.4-.565 0-1.298-.27-1.628-.6-.33-.33-1.022-.6-1.538-.6s-1.002-.19-1.079-.421c-.144-.434-2.265-1.092-4.726-1.466-.77-.118-1.544-.461-1.72-.763-.176-.303-.815-.55-1.42-.55s-1.271-.17-1.48-.379c-.209-.208-1.157-.424-2.106-.479-.949-.056-1.832-.273-1.961-.484-.139-.224-.02-.248.287-.058.346.214.427.167.238-.138-.159-.258-1.248-.462-2.462-.462-1.197 0-2.176-.178-2.176-.395 0-.218-.724-.511-1.609-.653-.885-.141-1.705-.413-1.823-.605-.119-.191-1.135-.347-2.26-.347-1.218 0-2.302-.233-2.681-.576-.391-.353-1.636-.606-3.232-.656-1.427-.044-2.781-.225-3.008-.401-.228-.177-1.898-.357-3.712-.401-1.814-.043-3.41-.262-3.548-.484-.153-.248-.047-.28.273-.082.346.214.427.167.238-.138-.178-.289-1.521-.462-3.582-.462-2.104 0-3.477-.181-3.796-.5-.487-.488-35.518-.857-39.96-.421m38.176 84.329c3.918.335 8.654.886 10.524 1.226 1.87.34 4.3.759 5.4.932 2.147.338 9.482 2.241 10.8 2.802.44.188 1.61.574 2.6.858 5.458 1.569 19.056 7.487 20.484 8.915.74.741.512 2.203-.789 5.059-.452.99-1.839 4.32-3.084 7.4s-2.419 5.96-2.61 6.4c-.312.72-1.101 2.6-2.015 4.8-2.345 5.648-2.429 5.8-3.22 5.8-.626 0-1.647-.386-5.765-2.18-.661-.287-2.101-.831-3.201-1.209-1.1-.378-2.54-.919-3.2-1.203-.66-.284-1.92-.74-2.8-1.013-.88-.274-2.028-.661-2.55-.861-.523-.199-2.593-.794-4.6-1.321-2.008-.527-4.55-1.227-5.65-1.555-11.161-3.333-34.973-3.48-44-.271-11.376 4.043-17.848 15.528-15.672 27.81 1.574 8.883 6.445 14.493 15.272 17.587 1.1.385 2.36.843 2.8 1.016.44.174 3.23 1.074 6.2 2 2.97.926 5.76 1.83 6.2 2.008.44.178 1.7.602 2.8.942 1.1.34 3.35 1.059 5 1.597s5.43 1.737 8.4 2.665c10.256 3.206 14.72 4.897 22.292 8.445 1.811.849 3.382 1.543 3.493 1.543.11 0 1.377.72 2.815 1.6 1.438.88 2.689 1.6 2.781 1.6.353 0 6.543 4.303 9.123 6.342 8.229 6.504 14.207 16.318 16.846 27.658 2.968 12.754 1.954 32.429-2.159 41.9-.215.495-.561 1.305-.769 1.8-6.102 14.521-19.037 25.848-36.222 31.718-3.284 1.122-4.251 1.401-8.4 2.426-18.295 4.52-44.396 4.498-62.2-.054-1.43-.365-3.41-.809-4.4-.986-2.411-.431-9.322-2.527-11.8-3.58-.44-.187-1.7-.658-2.8-1.047-3.303-1.169-11.715-5.107-15.6-7.303-2.07-1.169-2.917-3.117-1.829-4.205.236-.236.429-.718.429-1.071 0-.352.691-2.791 1.536-5.42.844-2.628 1.856-5.858 2.247-7.178 4.984-16.803 4.307-15.906 9.897-13.112 4.839 2.418 8.159 3.904 12.32 5.512.99.383 2.16.845 2.6 1.026.44.182 2.6.9 4.8 1.596 2.2.696 4.36 1.411 4.8 1.59.44.178 1.43.426 2.2.551.77.125 2.39.506 3.6.847 7.703 2.17 12.484 2.698 24.8 2.738 11.696.039 13.298-.131 18.623-1.969 9.883-3.411 16.11-9.872 18.29-18.979 4.037-16.868-2.641-28.131-20.513-34.596-1.65-.597-3.313-1.247-3.695-1.445-.382-.197-1.025-.359-1.428-.359-.404 0-1.532-.251-2.506-.558-.974-.307-2.851-.862-4.171-1.232-1.32-.371-2.85-.821-3.4-1.001-.55-.18-2.08-.633-3.4-1.008-1.32-.374-2.94-.84-3.6-1.034-.66-.195-2.82-.829-4.8-1.409-4.74-1.39-6.121-1.852-15.5-5.19-3.581-1.275-8.498-3.312-10.1-4.184-4.809-2.619-6.306-3.493-8.6-5.023-6.738-4.495-13.465-11.519-16.82-17.561-1.979-3.564-3.18-6.123-3.18-6.774 0-.319-.18-.69-.4-.826-.22-.136-.4-.651-.4-1.144 0-.493-.152-1.067-.337-1.276-.455-.514-1.542-4.832-2.26-8.98-2.151-12.43 1.397-35.358 6.19-40 .114-.11.551-.83.971-1.6 1.948-3.571 6.77-8.981 11.636-13.053 5.517-4.617 12.799-8.629 20.8-11.46 1.54-.545 3.616-1.283 4.613-1.639.998-.356 2.357-.648 3.02-.648.664 0 1.378-.153 1.587-.339 2.198-1.962 27.299-3.079 41.656-1.853" fill="#343434"/><path d="M195.9 90.699c3.795.066 10.005.066 13.8 0 3.795-.065.69-.119-6.9-.119s-10.695.054-6.9.119m-12.5.545c-23.395 3.39-42.544 15.656-50.515 32.356-2.549 5.341-2.645 5.573-2.406 5.812.117.118.437-.377.711-1.099 3.028-7.994 9.223-16.508 15.41-21.179.66-.499 1.29-1.022 1.4-1.164 1.51-1.947 12.64-7.963 18.4-9.946 2.09-.719 4.16-1.456 4.6-1.638 2.413-.997 8.209-2.18 13.58-2.773 2.189-.242 4.064-.523 4.167-.626.277-.278-2.613-.139-5.347.257m33.873-.238c.113.113 2.708.467 5.766.786 3.059.32 6.281.677 7.161.794 1.363.183 1.434.159.482-.156-2.137-.708-13.947-1.962-13.409-1.424m14.927 1.981c.22.067 1.48.352 2.8.632 1.32.281 2.571.661 2.78.845.209.185.762.336 1.229.336.467 0 1.646.248 2.62.552 6.305 1.964 8.737 2.75 9.971 3.222 10.151 3.885 15.427 6.611 15.337 7.925-.035.509-1.72 4.88-3.745 9.713-3.618 8.637-4.37 10.623-3.847 10.15.448-.404 8.255-19.707 8.255-20.411 0-.565-6.166-3.918-10.2-5.547-.44-.177-1.43-.597-2.2-.933-4.527-1.974-20.379-6.694-22.298-6.639-.606.017-.922.087-.702.155m-40.739 29.012c-2.714.484-2.945.967-.261.546 2.643-.415 22.089-.461 26.6-.063 2.563.226 2.882.201 1.6-.129-2.026-.522-25.345-.818-27.939-.354m-7.2 1.797c-10.914 3.779-16.473 11.519-16.86 23.475l-.147 4.529.318-4.04c.718-9.095 3.124-14.475 8.541-19.104 1.999-1.707 7.524-4.648 8.761-4.662.289-.003 1.336-.261 2.326-.573 1.252-.395 1.496-.568.8-.571-.55-.002-2.233.424-3.739.946m40.139-.213c1.87.38 3.85.817 4.4.973.725.205.832.175.387-.108-.851-.542-5.808-1.658-7.112-1.601-.591.026.455.357 2.325.736m7.6 1.837c1.21.338 3.616 1.067 5.346 1.618 1.73.552 3.229.92 3.331.818.264-.264-7.574-2.671-9.375-2.879-1.162-.134-1.004-.034.698.443m26.553 2.023c-.873 2.488-2.603 5.757-3.048 5.757-.442 0-1.93-.565-7.305-2.775-.44-.181-1.61-.639-2.6-1.018s-2.113-.851-2.495-1.048c-.382-.197-1.012-.351-1.4-.341-.388.01 2.625 1.347 6.695 2.97 5.651 2.254 7.509 2.841 7.862 2.482.619-.63 3.006-6.336 2.755-6.587-.109-.108-.318.143-.464.56m-129.268 5.564c-8.551 31.999 6.432 60.485 37.915 72.085 9.58 3.53 13.071 4.694 21.939 7.313 3.817 1.127 7.03 1.96 7.139 1.85.11-.11-.583-.419-1.539-.687-.956-.269-3.089-.891-4.739-1.384-1.65-.492-4.08-1.203-5.4-1.579-1.32-.376-3.93-1.215-5.8-1.866-1.87-.65-5.02-1.728-7-2.396-21.599-7.288-35.276-19.282-40.985-35.943-3.817-11.137-4.213-27.091-.937-37.702.323-1.046.514-2.123.424-2.393-.09-.27-.548.946-1.017 2.702m38.479 20.393c.954 9.889 6.984 15.091 23.636 20.391 4.62 1.471 8.76 2.827 9.2 3.013.44.187 3.23 1.1 6.2 2.03 13.479 4.218 15.449 4.846 16.2 5.164.44.186 2.15.826 3.8 1.422s4.138 1.601 5.528 2.232c1.39.631 2.616 1.148 2.724 1.148 2.828 0 17.8 9.68 23.455 15.165 7.104 6.889 10.931 14.28 13.482 26.035.406 1.87.754 2.881.774 2.246.02-.634-.132-1.804-.339-2.6-.207-.795-.67-2.616-1.029-4.046-4.481-17.832-17.348-29.908-42.395-39.787-4.881-1.925-7.337-2.764-17-5.807-3.63-1.143-8.4-2.674-10.6-3.401-2.2-.728-7.42-2.437-11.6-3.799-14.391-4.688-19.478-8.925-21.377-17.806-.669-3.13-.849-3.566-.659-1.6m29.069 61.159c.092.087 3.478 1.102 7.524 2.255 14.438 4.114 21.948 8.576 26.299 15.624 1.469 2.38 2.252 3.032 1.195.995-2.812-5.42-7.933-9.413-18.251-14.229-.33-.154-1.95-.681-3.6-1.172-1.65-.49-3.45-1.04-4-1.221-.55-.181-2.08-.632-3.4-1.003-1.32-.37-2.922-.838-3.56-1.041-1.176-.372-2.511-.498-2.207-.208m76.286 22.841c.155 2.2.281 5.71.281 7.8s-.126 5.6-.281 7.8c-.23 3.29-.206 3.645.139 2 .55-2.619.555-17.032.007-19.6-.355-1.667-.379-1.333-.146 2m-40.487-1.4c.176.55.631 2.17 1.009 3.6.379 1.43.704 2.178.724 1.662.044-1.191-1.124-5.333-1.654-5.862-.268-.267-.294-.068-.079.6m1.899 9c.002 1.54.074 2.121.161 1.291.087-.83.085-2.09-.003-2.8-.089-.71-.16-.031-.158 1.509m-.654 5.286c-2.435 19.282-19.244 28.551-46.677 25.741-2.53-.259-5.32-.542-6.2-.629-.962-.095-.563.073 1 .422 14.159 3.161 34.051-.016 42.497-6.785 5.767-4.624 10.413-14.069 9.822-19.968-.091-.904-.217-.555-.442 1.219m38.043 9.956c-2.724 13.422-9.695 24.54-20.049 31.976-1.941 1.394-3.741 2.611-4 2.704-.259.093-.375.274-.258.403 1.1 1.211 12.797-9.481 16.565-15.143 4.343-6.527 9.43-19.958 8.554-22.585-.094-.282-.459.909-.812 2.645m-136.426.458c-.084.165-.393 1.11-.686 2.1-.294.99-.846 2.79-1.227 4-.38 1.21-1.098 3.55-1.595 5.2-.497 1.65-1.257 4.08-1.689 5.4-4.704 14.369-4.926 13.065 2.891 16.941 7.565 3.751 9.472 4.544 16.463 6.85 8.698 2.868 8.506 2.812 9.577 2.775.535-.019-.198-.346-1.628-.727s-2.87-.796-3.2-.922c-.33-.127-1.77-.598-3.2-1.046-6.84-2.146-10.603-3.696-18.176-7.486-6.327-3.167-6.456-3.337-5.255-6.915.86-2.561 2.375-7.376 3.232-10.27.391-1.32.845-2.76 1.009-3.2.163-.44.62-1.88 1.014-3.2.394-1.32 1.135-3.674 1.646-5.23.512-1.557.93-3.132.93-3.5 0-1.093 1.176-.791 5.608 1.438 8.664 4.358 16.968 7.523 25.592 9.753 8.112 2.098 10.095 2.538 11.325 2.513.701-.015-.705-.455-3.125-.98-12.699-2.752-22.616-6.214-33.92-11.842-3.744-1.864-5.251-2.31-5.586-1.652m110.686 35.259c-1 .945-10.013 5.084-13.537 6.217-.417.133-.657.344-.533.467.334.334 7.207-2.478 11.09-4.537 3.498-1.856 4.474-2.506 3.76-2.506-.22 0-.571.162-.78.359m-17.18 7.455c-1.541.706-.44.695 1.4-.014.876-.337 1.1-.538.6-.537-.44.001-1.34.249-2 .551m-67.6.984c.66.219 3.09.766 5.4 1.215 2.31.449 5.069.99 6.131 1.202 1.061.212 2.591.361 3.4.332 1.651-.061 1.621-.067-4.931-1.089-1.54-.241-4.06-.711-5.6-1.047-4.035-.878-6.039-1.157-4.4-.613m60.8.547c-1.76.455-2.93.884-2.599.952.33.068 2.31-.32 4.4-.861 2.089-.542 3.259-.971 2.599-.952-.66.018-2.64.405-4.4.861m-8.6 1.669c-2.221.427-2.367.502-1 .517.88.01 2.68-.226 4-.523 3.159-.712.712-.707-3 .006m-33.8 1.048c2.742.589 26.581.601 29.2.015 1.741-.39 1.507-.411-1.8-.163-4.885.368-19.32.369-25 .002-3.608-.232-4.04-.206-2.4.146" fill="#9c9c9c"/><path d="M198.123 90.299c2.597.07 6.737.069 9.2-.001 2.462-.07.337-.127-4.723-.126-5.06 0-7.075.057-4.477.127m75.57 149.301c0 .77.082 1.085.183.7.1-.385.1-1.015 0-1.4-.101-.385-.183-.07-.183.7m-39.584 6.8c0 .99.078 1.395.173.9.096-.495.096-1.305 0-1.8-.095-.495-.173-.09-.173.9m39.592 4.2c.004.88.086 1.193.182.695.096-.497.092-1.217-.008-1.6-.1-.382-.179.025-.174.905m-81.18 25.698c2.156.073 5.576.072 7.6 0 2.023-.073.259-.132-3.921-.131-4.18 0-5.836.059-3.679.131m-8.221 31.984c.495.096 1.305.096 1.8 0 .495-.095.09-.173-.9-.173s-1.395.078-.9.173" fill="#949494"/><path d="M187.6 90.19c-6.182.613-10.872 1.405-11.4 1.925-.263.259-.058.304.6.131 7.888-2.071 32.961-2.811 44.738-1.321 5.626.711 8.295.83 5.262.233-7.231-1.422-29.162-1.964-39.2-.968m42 1.81c1.53.49 2.758.49 2 0-.33-.213-1.14-.373-1.8-.354-1.176.033-1.18.04-.2.354m-58.2 1.087c-.88.335-2.86 1.055-4.4 1.6-14.099 4.989-27.178 14.873-32.436 24.513-.42.77-.856 1.49-.969 1.6-.712.693-3.792 7.937-3.499 8.229.108.108.421-.394.695-1.116 4.852-12.778 15.076-23.184 29.409-29.934 3.852-1.814 12.533-4.969 14.6-5.307.701-.114.582-.168-.4-.179-.77-.008-2.12.259-3 .594m62.4-.317c.88.174 3.31.787 5.4 1.361 2.09.573 4.25 1.163 4.8 1.31.66.177.864.133.6-.127-.579-.572-8.482-2.625-10.6-2.753l-1.8-.109 1.6.318m13 3.511c3.579 1.227 9.439 3.426 11.2 4.203 3.517 1.55 9.011 4.392 9.717 5.027.662.595.697.592.454-.043-.256-.666-7.697-4.51-12.171-6.288-4.201-1.669-9.8-3.58-10.399-3.548-.33.017.209.309 1.199.649m18.449 16.444c-1.402 3.451-2.787 6.815-3.076 7.475-1.389 3.168-2.553 6.353-2.384 6.523.104.103.377-.332.608-.968.231-.635.584-1.515.785-1.955.201-.44 1.384-3.32 2.628-6.4 1.244-3.08 2.705-6.568 3.245-7.752.541-1.183.93-2.387.864-2.675-.065-.288-1.267 2.301-2.67 5.752m-72.449 9.712c-9.22 1.623-14.015 3.646-18 7.594-2.413 2.39-5.162 6.541-4.662 7.04.119.119.625-.658 1.124-1.727.52-1.113 2.139-3.163 3.787-4.795 7.317-7.248 17.582-9.101 41.951-7.572 2.576.162 2.656.145 1-.218-2.483-.543-22.493-.799-25.2-.322m28.6 1.188c.88.225 2.59.565 3.8.757 1.21.191 2.65.466 3.2.61.846.222.891.194.297-.186-.747-.477-4.122-1.155-7.097-1.426l-1.8-.163 1.6.408m8.8 1.957c1.019.417 8.077 2.408 9.4 2.651l1 .184-1-.451c-1.37-.619-8.859-2.746-9.6-2.727-.384.01-.312.133.2.343m27.788 4.787c-1.6 3.876-1.733 3.937-5.297 2.439-1.562-.656-2.921-1.111-3.021-1.012-.099.1.249.349.775.554.525.205 1.825.75 2.888 1.212 3.177 1.378 3.218 1.356 4.853-2.562.368-.88.866-2.005 1.108-2.499.242-.495.344-.996.227-1.113-.118-.118-.807 1.224-1.533 2.981m-16.388-1.474c3.269 1.44 6.724 2.709 7.308 2.684.271-.011-1.308-.73-3.508-1.597-3.59-1.416-6.313-2.194-3.8-1.087m-112.723 3.367c-2.823 9.907-2.912 24.044-.218 34.538.367 1.43.846 2.78 1.063 3 .262.265.307.15.134-.339-.482-1.364-1.757-7.233-2.209-10.168-.571-3.716-.579-15.398-.012-18.847.623-3.785 1.56-8.064 2.051-9.359.232-.612.32-1.214.196-1.338-.124-.124-.576 1.007-1.005 2.513m40.294 7.038c-.254.935-.621 2.222-.816 2.86-.195.638-.337 1.898-.315 2.8.032 1.294.194.882.767-1.96.399-1.98.852-4.005 1.006-4.5.154-.495.177-.9.05-.9s-.438.765-.692 1.7m-1.457 9.3c.003 1.1.081 1.503.173.895.092-.609.09-1.509-.005-2-.095-.492-.171.005-.168 1.105m.324 3.28c-.179 6.026 5.157 13.8 11.696 17.039 3.094 1.533 6.68 2.8 7.005 2.476.096-.097-.075-.251-.382-.341-10.23-3.036-15.971-8.71-17.699-17.494-.36-1.832-.596-2.472-.62-1.68m-38.026 19.196c-.006.482.168.988.388 1.124.22.136.4.507.4.826 0 4.861 11.155 18.434 20 24.335 2.294 1.53 3.791 2.404 8.6 5.023 1.602.872 6.519 2.909 10.1 4.184 10.58 3.765 12.462 4.374 21.1 6.817 1.32.373 2.886.863 3.48 1.087.593.225 1.296.336 1.562.247.265-.088-2.201-.942-5.48-1.898-36.085-10.515-50.768-20.288-58.627-39.021-.831-1.98-1.516-3.206-1.523-2.724m58.388 1.114c2.499.98 8.087 2.656 8.264 2.479.199-.198-8.492-3.079-9.196-3.048-.258.011.162.267.932.569m8.833 2.759c.274.244 5.653 2.037 14.567 4.855 18.108 5.724 26.773 9.361 36.128 15.166 14.339 8.897 22.387 20.689 24.999 36.63.138.839.173.796.219-.268.266-6.194-5.932-19.576-12.317-26.592-2.961-3.254-13.047-11.14-14.248-11.14-.092 0-1.343-.72-2.781-1.6-1.438-.88-2.705-1.6-2.815-1.6-.111 0-1.682-.694-3.493-1.543-7.572-3.548-12.036-5.239-22.292-8.445-2.97-.928-6.66-2.099-8.2-2.601-1.54-.503-3.88-1.243-5.2-1.645-1.32-.402-2.571-.873-2.78-1.048-.366-.306-2.127-.473-1.787-.169m-.233 40.25c.44.19 1.88.646 3.2 1.015 1.32.368 3.197.921 4.171 1.228.974.307 2.144.544 2.6.526.456-.018-1.601-.733-4.571-1.589-5.183-1.495-7.102-1.914-5.4-1.18m11.2 3.201c.136.22.502.4.813.4.783 0 6.373 2.198 8.729 3.432 1.069.559 2.031.928 2.14.819.301-.301-3.24-1.987-7.565-3.602-4.227-1.578-4.484-1.643-4.117-1.049m12.2 4.955c0 .096 1.177 1.014 2.615 2.04 3.303 2.358 5.456 4.581 7.275 7.511 1.445 2.329 2.201 2.933 1.161.927-1.887-3.636-11.051-12.326-11.051-10.478m53.041 12.245c.146 1.43.331 2.675.412 2.767.356.403.093-4.229-.271-4.767-.282-.418-.325.19-.141 2m-41.39.4c-.008.33.232 1.14.535 1.8.302.66.556.93.563.6.008-.33-.232-1.14-.535-1.8-.302-.66-.556-.93-.563-.6m1.236 4.2c.004.66.145 1.74.313 2.4l.305 1.2.008-1.4c.004-.77-.137-1.85-.313-2.4-.311-.97-.32-.965-.313.2m40.87 5c0 2.97.063 4.185.14 2.7.077-1.485.077-3.915 0-5.4-.077-1.485-.14-.27-.14 2.7m-40.724 3.268c-.177 1.687-.236 3.307-.131 3.6.258.722.816-4.46.613-5.689-.089-.539-.306.402-.482 2.089m40.235 4.532c-.042.66-.169 1.92-.283 2.8-.179 1.393-.15 1.473.223.615.236-.541.363-1.801.283-2.8-.092-1.13-.176-1.362-.223-.615m-41.221 1.815c-2.234 8.919-8.603 15.295-18.724 18.744-1.938.66-3.219 1.21-2.847 1.221 2.233.066 9.864-3.487 13.212-6.151 4.579-3.645 9.637-12.21 9.04-15.309-.073-.379-.38.293-.681 1.495m40.413 3.687c-.062 1.147-1.789 7.934-2.483 9.76-.22.577-.309 1.14-.198 1.251.216.215.277.073 1.177-2.713 1.13-3.496 1.899-7.174 1.732-8.28l-.168-1.12-.06 1.102m-137.561 1.598c-.347.434-2.011 5.507-3.969 12.1-.327 1.1-.76 2.413-.962 2.919-.202.505-.35 1.225-.328 1.6.044.745.812-1.473 3.16-9.119 2.726-8.878 2.129-8.327 6.535-6.034 4.42 2.3 10.326 4.907 10.568 4.664.117-.116-.129-.332-.546-.48-1.592-.564-4.515-1.903-8.7-3.987-4.62-2.301-5.131-2.449-5.758-1.663m16.301 6.87c1.628.875 13.233 4.731 13.484 4.479.127-.126-.02-.304-.327-.394-1.902-.56-8.691-2.752-9.357-3.021-.44-.178-1.481-.618-2.314-.979-1.811-.784-2.902-.847-1.486-.085m117.463 4.513c-.351.835-.998 2.289-1.438 3.233-.44.944-.625 1.608-.412 1.476.214-.132.758-1.085 1.21-2.116.451-1.032 1.021-2.281 1.266-2.775.245-.495.348-.998.228-1.117-.119-.119-.504.465-.854 1.299m-100.863.912c4.295 1.233 10.159 2.473 10.918 2.31.375-.08-.578-.382-2.118-.671-1.54-.288-4.15-.891-5.8-1.34-1.65-.449-3.63-.881-4.4-.959-.805-.083-.211.198 1.4.66m14.6 2.997c3.608.775 22.55.764 25.4-.016l2-.547-1.8.267c-2.15.32-22.861.292-26-.035l-2.2-.228 2.6.559m81.583 4.721c-6.709 10.083-20.927 19.861-34.161 23.492-1.088.299-1.767.613-1.508.7 3.166 1.055 22.728-9.494 28.991-15.633 4.042-3.962 9.581-11.119 9.031-11.669-.094-.094-1.152 1.306-2.353 3.11m-136.172 2.078c-.805 2.558-1.398 4.847-1.318 5.087.08.241.373-.353.651-1.32.277-.967.953-3.174 1.501-4.904.548-1.73.914-3.228.813-3.329-.1-.101-.842 1.909-1.647 4.466m-2.053 6.375c-.597 1.556.041 2.778 2.042 3.908 3.884 2.195 12.297 6.134 15.6 7.303 1.1.389 2.36.86 2.8 1.047.803.341 4.997 1.726 8.875 2.931 1.141.355 2.581.625 3.2.601.914-.035.825-.104-.475-.362-1.58-.315-12.049-3.665-13.6-4.352-.44-.195-2.24-.95-4-1.679-3.773-1.562-10.554-4.895-12.747-6.265-1.414-.884-1.527-1.084-1.325-2.333.226-1.389.023-1.825-.37-.799m33.901 16.005c.625.676 12.859 3.044 15.341 2.968.919-.027 1.174-.109.6-.192-3.573-.513-7.099-1.136-10.4-1.838-2.09-.444-4.25-.9-4.8-1.013-.55-.113-.883-.079-.741.075m63.541.701c-1.65.439-4.89 1.125-7.2 1.524-2.31.399-3.57.742-2.8.763 1.851.051 13.751-2.377 14.288-2.914.434-.433-1.21-.193-4.288.627m-45.4 2.71c.751.34 5.727.59 5.367.27-.092-.081-1.517-.257-3.167-.39-1.918-.154-2.711-.111-2.2.12m29 .018l-2.2.27 2.6.037c1.43.02 2.96-.118 3.4-.307.979-.421-.368-.421-3.8 0m-16.877.699c2.708.069 7.028.069 9.6 0 2.572-.07.357-.127-4.923-.126-5.28 0-7.385.057-4.677.126" fill="#7a7a7a"/></g></svg>